<?xml version="1.0" encoding="utf-8"?>
<!-- Generator: Adobe Illustrator 16.0.0, SVG Export Plug-In . SVG Version: 6.00 Build 0)  -->
<svg version="1.2" baseProfile="tiny" id="Layer_1" xmlns="http://www.w3.org/2000/svg" xmlns:xlink="http://www.w3.org/1999/xlink"
	 x="0px" y="0px" width="283.465px" height="283.465px" viewBox="0 0 283.465 283.465" xml:space="preserve">
<g>
	<path fill-rule="evenodd" d="M135.488,166.521c-8.387,0-15.107-1.418-15.107-3.145c0-1.729,6.721-3.146,15.107-3.146
		c8.323,0,15.048,1.416,15.048,3.146C150.536,165.103,143.812,166.521,135.488,166.521L135.488,166.521z M151.458,121.631
		c0,0-9.62,11.593-9.127,12.332c0.684-0.739-3.454-12.457-3.454-12.457s-0.862-2.466-3.571-10.541H125.5v-0.063l-23.798,0.063
		H83.755l-1.792,7.582h13.509h3.206c8.69,0,13.996,3.515,12.514,9.744c-1.602,6.783-9.185,9.68-17.266,9.68h-3.021l3.885-16.587
		H81.286l-5.734,24.229h19.178c14.428,0,28.116-7.581,30.585-17.322c0.432-1.789,0.371-6.291-0.739-8.942
		c0-0.063-0.063-0.186-0.125-0.368c-0.061-0.063-0.124-0.495,0.125-0.559c0.122-0.062,0.368,0.186,0.368,0.249
		c0,0,0.125,0.31,0.246,0.557l12.208,34.465l31.083-35.085l13.132-0.061h3.206c8.696,0,14.061,3.515,12.578,9.744
		c-1.605,6.783-9.246,9.68-17.325,9.68h-3.085l3.947-16.587H167.43l-5.734,24.229h19.18c14.427,0,28.237-7.581,30.52-17.322
		c2.344-9.744-7.77-17.326-22.321-17.326h-12.7h-15.91C152.881,119.902,151.458,121.631,151.458,121.631L151.458,121.631z
		 M71.732,163.191c0,5.177,29.598,9.372,66.097,9.372c36.566,0,66.169-4.195,66.169-9.372c0-5.181-29.603-9.373-66.169-9.373
		C101.33,153.818,71.732,158.011,71.732,163.191L71.732,163.191z"/>
</g>
</svg>
